<svg width="169" height="30" fill="none" xmlns="http://www.w3.org/2000/svg"><path d="M22.2 21.062 10.06.475H0v29.192h7.463V9.651l12.044 20.016h5.385L36.936 9.651v20.016H44.4V.475H34.34L22.2 21.062Zm25.74 8.558h7.463V.475H47.94V29.62ZM80.012.475H58.994v29.192h21.018c7.51 0 14.076-4.66 14.076-14.596S87.475.475 80.012.475ZM66.457 11.933a2.18 2.18 0 0 1-1.087 1.902c-.236.143-.378.38-.378.618v7.037c0 .428-.33.713-.708.713a.698.698 0 0 1-.709-.713v-7.037c0-.285-.141-.523-.378-.618a2.18 2.18 0 0 1-1.086-1.902V9.746c0-1.236.992-2.187 2.173-2.187 1.18 0 2.173.999 2.173 2.187v2.187Zm9.116 11.458c-4.582 0-8.266-3.708-8.266-8.32 0-4.611 3.684-8.32 8.266-8.32 4.581 0 8.265 3.709 8.265 8.32 0 4.565-3.731 8.32-8.265 8.32Zm13.603-10.744a.698.698 0 0 1-.709.713.729.729 0 0 0-.708.713v7.37a.698.698 0 0 1-.709.712.698.698 0 0 1-.708-.713V14.12a.698.698 0 0 0-.709-.713.698.698 0 0 1-.708-.713V8.13c0-.238.189-.475.472-.475s.472.19.472.475v3.803h.803V8.13c0-.238.19-.475.473-.475.236 0 .472.19.472.475v3.803h.803V8.13c0-.238.189-.475.472-.475.284 0 .473.19.473.475v4.517h-.19Zm61.402-.619c-8.454-.523-10.202-.903-10.202-3.185 0-2.187 1.748-2.853 9.069-2.853 7.746 0 10.91.809 10.91 3.994h7.463c0-7.226-6.612-9.984-17.57-9.984-10.864 0-17.335 2.044-17.335 8.463 0 6.56 5.007 8.558 17.618 9.128 9.399.476 11.053.856 11.053 3.28 0 2.283-2.362 3.186-10.203 3.186-9.446 0-11.902-1.426-11.902-4.517h-7.463c0 8.416 7.085 10.46 18.94 10.46 10.722 0 18.043-1.569 18.043-9.366.095-7.322-6.99-7.94-18.421-8.606ZM106.793.475 91.868 29.667h8.218l3.118-6.228h17.334l3.118 6.228h8.218L116.854.475h-10.061Zm-.897 17.354L111.8 5.99l5.857 11.839h-11.761Z" fill="#fff"/></svg>