<svg width="15" height="24" fill="none" xmlns="http://www.w3.org/2000/svg"><path d="M7.5 9.281c-2.51 0-4.567-2.09-4.567-4.64C2.963 2.09 4.99 0 7.5 0c2.51 0 4.566 2.09 4.566 4.64 0 2.551-2.026 4.641-4.566 4.641Zm0-7.191c-1.391 0-2.51 1.137-2.51 2.55 0 1.414 1.119 2.551 2.51 2.551 1.391 0 2.51-1.137 2.51-2.55 0-1.414-1.119-2.551-2.51-2.551ZM12.974 24v-5.745c0-3.073-2.45-5.532-5.444-5.532-3.024 0-5.443 2.49-5.443 5.532V24H0v-5.745c0-4.21 3.357-7.621 7.5-7.621s7.5 3.41 7.5 7.621V24h-2.026Z" fill="#fff"/></svg>